<svg aria-hidden="true" style="position:absolute;width:0;height:0;overflow:hidden" xmlns="http://www.w3.org/2000/svg">
  <defs>
    <symbol id="mimino" viewBox="0 0 138 32">
      <path d="M11.354 1.095c1.322 0 2.442.467 3.362 1.401.934.934 1.401 2.062 1.401 3.384v26.121h-3.19V5.6c0-.445-.151-.819-.453-1.121s-.675-.453-1.121-.453c-.445 0-.826.151-1.142.453A1.522 1.522 0 0 0 9.758 5.6v26.401h-3.19V5.6c0-.445-.151-.819-.453-1.121s-.675-.453-1.121-.453c-.445 0-.826.151-1.142.453A1.522 1.522 0 0 0 3.399 5.6v26.401H.209V5.88c0-1.322.467-2.45 1.401-3.384s2.062-1.401 3.384-1.401c1.178 0 2.234.417 3.168 1.25.934-.833 1.997-1.25 3.19-1.25zM31.987 32V1.095h3.19V32h-3.19zM62.19 1.095c1.322 0 2.442.467 3.362 1.401.934.934 1.401 2.062 1.401 3.384v26.121h-3.19V5.6c0-.445-.151-.819-.453-1.121s-.675-.453-1.121-.453c-.445 0-.826.151-1.142.453a1.522 1.522 0 0 0-.453 1.121v26.401h-3.19V5.6c0-.445-.151-.819-.453-1.121s-.675-.453-1.121-.453c-.445 0-.826.151-1.142.453a1.522 1.522 0 0 0-.453 1.121v26.401h-3.19V5.88c0-1.322.467-2.45 1.401-3.384s2.062-1.401 3.384-1.401c1.178 0 2.234.417 3.168 1.25.934-.833 1.997-1.25 3.19-1.25zM82.823 32V1.095h3.19V32h-3.19zm25.418-16.897V1.094h3.189v30.905h-3.189V18.012h-3.168v13.987h-3.19V1.094h3.19v14.009h3.168zm20.483-12.607c.935-.934 2.062-1.401 3.384-1.401s2.442.467 3.362 1.401c.934.934 1.4 2.062 1.4 3.384v21.358c0 1.322-.467 2.45-1.4 3.384-.92.919-2.04 1.379-3.362 1.379s-2.45-.46-3.384-1.379c-.934-.934-1.4-2.062-1.4-3.384V5.88c0-1.322.467-2.45 1.4-3.384zm4.957 25V5.599c0-.445-.15-.819-.452-1.121a1.52 1.52 0 0 0-1.12-.453c-.446 0-.826.151-1.142.453a1.522 1.522 0 0 0-.454 1.121v21.897c0 .445.151.826.454 1.142.316.302.696.453 1.142.453a1.52 1.52 0 0 0 1.12-.453c.302-.316.452-.697.452-1.142z"/>
    </symbol>
    <symbol id="icon-next-button" viewBox="0 0 53 32">
      <path d="m38.208 1.042-2.514 2.514 10.667 10.667H0v3.556h46.361L35.694 28.446l2.514 2.514 14.958-14.958L38.208 1.044z"/>
    </symbol>
    <symbol id="icon-prev-button" viewBox="0 0 55 32">
      <path d="M53.481 14.222H7.122L17.789 3.555l-2.517-2.514L.316 15.999l14.958 14.958 2.516-2.514L7.123 17.776h46.359V14.22z"/>
    </symbol>
  </defs>
</svg>
